<?xml version="1.0" standalone="yes"?>
<svg xmlns="http://www.w3.org/2000/svg" width="783" height="650">
<path style="fill:#efeff1; stroke:none;" d="M0 0L0 650L783 650L783 0L0 0z"/>
<path style="fill:#a9a6a1; stroke:none;" d="M393 174L393 175L396 175L393 174M421 174L421 175L425 175L421 174M390 175L391 176L390 175z"/>
<path style="fill:#3f3d44; stroke:none;" d="M402 210L402 221L397 221L397 232L366 232L355.028 233.603L354 251L336.028 252.603L335 260L336.028 285.397L344 287C344.496 293.364 348.528 292.996 354 293L355 334C347.583 334 321.603 330.159 319 338L442 338C459.386 338 482.349 341.922 499 337C492.278 330.136 471.279 334 462 334L463 293C468.472 292.996 472.504 293.364 473 287L482 287L482 261L480.397 252.028L463 251L463 232L421 232C420.999 226.977 421.957 221.994 416 221L416 210C426.136 213.626 437.823 221.183 449 218.467C460.94 215.565 466.173 199.641 458.581 190.04C452.499 182.348 435.506 176.919 426 175.329C417.347 173.883 416.636 182.961 408.997 182.961C402.623 182.961 402.21 176.952 396.906 175.438C388.386 173.005 366.34 182.309 360.329 188.329C350.458 198.217 355.949 216.661 370 218.787C381.119 220.469 391.734 212.935 402 210z"/>
<path style="fill:#a9a6a1; stroke:none;" d="M398 175L399 176L398 175M427 175L428 176L427 175M387 176L388 177L387 176M384 177L385 178L384 177M400 177L401 178L400 177M432 177L433 178L432 177M435 178L436 179L435 178M379 179L380 180L379 179M360 198L364 199L362 195L367 195C367 191.765 371.341 192.256 374 191C380.343 188.005 385.616 184.057 393 186L391 182L396 181L399 185C395.41 171.692 362.069 187.754 360 198M418 186L420 184L421 184L423 186L421 182L426 181L430 187C435.628 186.213 439.438 187.492 443 192L455 194L458 199C455.184 187.867 422.563 170.818 418 186M438 179L439 180L438 179M376 180L377 181L376 180M415 180L416 181L415 180M373 181L374 182L373 181z"/>
<path style="fill:#3f3d44; stroke:none;" d="M391 182L395 186L396 181L391 182M421 182L425 186L426 181L421 182z"/>
<path style="fill:#a9a6a1; stroke:none;" d="M443 181L444 182L443 181M446 182L447 183L446 182M368 183L369 184L368 183M449 183L450 184L449 183M365 184L366 185L365 184z"/>
<path style="fill:#efeff1; stroke:none;" d="M387 186C389.402 188.176 392.303 190.049 393.821 193.015C401.201 207.439 375.413 216.059 372.438 199C371.945 196.175 373.056 193.595 374 191L366 193C366.365 197.153 364.952 198.105 361 197C357.646 204.293 362.119 212.586 370 214.466C388.905 218.976 407.577 201.986 398 184L387 186M420 184C408.082 201.492 429.025 218.648 447 214.605C455.139 212.774 459.902 204.351 456 197L455 197C451.37 198.019 450.881 196.535 451 193L444 191C445.023 196.511 445.675 202.363 440.786 206.347C433.632 212.178 421.658 206.516 422.329 197C422.697 191.787 427.573 189.088 430 185L420 184z"/>
<path style="fill:#a9a6a1; stroke:none;" d="M453 185L454 186L453 185M362 186L363 187L362 186z"/>
<path style="fill:#3f3d44; stroke:none;" d="M381.001 186.587C366.587 190.364 372.363 212.514 386.999 208.566C400.729 204.862 394.752 182.984 381.001 186.587z"/>
<path style="fill:#a9a6a1; stroke:none;" d="M399 186L400 187L399 186z"/>
<path style="fill:#3f3d44; stroke:none;" d="M432 186.573C417.375 189.415 421.112 211.283 436 208.768C450.035 206.397 446.015 183.85 432 186.573z"/>
<path style="fill:#a9a6a1; stroke:none;" d="M417 187L418 188L417 187M428 187L429 188L428 187M400.333 188.667L400.667 189.333L400.333 188.667M425 189L426 190L425 189M358 190L359 191L358 190M416 190L417 191L416 190M393 191L394 192L393 191M401 191L402 192L401 191M373 192L374 193L373 192z"/>
<path style="fill:#efeff1; stroke:none;" d="M378 197C382.49 197.865 385.602 196.467 387 192L378 197z"/>
<path style="fill:#a9a6a1; stroke:none;" d="M423 192L424 193L423 192z"/>
<path style="fill:#efeff1; stroke:none;" d="M430 193L439 198C437.602 193.533 434.49 192.135 430 193z"/>
<path style="fill:#a9a6a1; stroke:none;" d="M434 192L435 193L434 192M394 193L395 194L394 193M415 193L416 194L415 193M436 193L437 194L436 193M444 193L445 194L444 193z"/>
<path style="fill:#3f3d44; stroke:none;" d="M362 195L366 199C366.547 195.453 365.547 194.453 362 195z"/>
<path style="fill:#a9a6a1; stroke:none;" d="M372.333 194.667L372.667 195.333L372.333 194.667M422.333 194.667L422.667 195.333L422.333 194.667M430 194L431 195L430 194z"/>
<path style="fill:#3f3d44; stroke:none;" d="M450 195L454 199L455 194L450 195z"/>
<path style="fill:#a9a6a1; stroke:none;" d="M378 195L379 196L378 195M461 195L462 196L461 195M384 196L385 197L384 196M355 197L356 198L355 197M382 197L383 198L382 197M450 197L451 198L450 197M415 198L416 199L415 198M451 198L452 199L451 198M359 199L360 200L359 199M372 200L373 201L372 200M401 200L402 201L401 200M422 200L423 201L422 200M416 201L417 202L416 201M400 202L401 203L400 202M408 202L407 206L411 206L408 202M359 203L360 204L359 203M417 203L418 204L417 203M355 204L356 205L355 204M392 205L393 206L392 205M442 205L443 206L442 205M457 205L458 206L457 205M360 206L361 207L360 206M391 206L392 207L391 206M441 206L442 207L441 206M461 206L462 207L461 206M377 207L378 208L377 207M421 207L422 208L421 207M427 207L428 208L427 207M456 207L457 208L456 207M361 208L362 209L361 208M379 208L380 209L379 208M423 208L424 209L423 208M429 208L430 209L429 208M369 209L370 210L369 209z"/>
<path style="fill:#3f3d44; stroke:none;" d="M370 214L374 210C370.453 209.453 369.453 210.453 370 214z"/>
<path style="fill:#a9a6a1; stroke:none;" d="M391 209L392 210L391 209M444 209L445 210L444 209z"/>
<path style="fill:#3f3d44; stroke:none;" d="M445 214L449 210C445.453 209.453 444.453 210.453 445 214z"/>
<path style="fill:#a9a6a1; stroke:none;" d="M455 209L456 210L455 209M388 210L389 211L388 210M406 210L406 221L412 221L412 210L406 210M418 210L419 211L418 210M454 210L455 211L454 210M358 211L359 212L358 211M397 211L398 212L397 211M431 211L432 212L431 211M453 211L454 212L453 211M373 212L374 213L373 212M395 212L396 213L395 212M434 212L435 213L434 212M448 212L449 213L448 212M372 213L373 214L372 213M380 213L381 214L380 213M392 213L393 214L392 213M447 213L448 214L447 213M450 213L451 214L450 213M457 213L458 214L457 213M369 214L370 215L369 214M377 214L378 215L377 214M427 214L428 215L427 214M448 214L449 215L448 214M456 214L457 215L456 214M430 215L431 216L430 215M363 216L364 217L363 216M384 216L385 217L384 216M365 217L366 218L365 217M381 217L382 218L381 217M378 218L379 219L378 218M438 218L439 219L438 218M449 218L450 219L449 218M420 221L421 222L420 221M401 225L401 232L417 232L417 225L401 225M354 232L355 233L354 232M358 239L362 239L361 236L456 236C449.988 233.097 439.687 235 433 235L380 235C374.354 235 359.953 232.323 358 239z"/>
<path style="fill:#efeff1; stroke:none;" d="M361 236C364.319 241.12 374.49 239 380 239L436 239C441.794 239 453.526 241.358 457 236L361 236z"/>
<path style="fill:#a9a6a1; stroke:none;" d="M456 239L459 236L456 239M358 243L358 251C364.25 251.001 369.431 250.536 370 258L384 258L384 243L358 243M388 243L388 244L394 244L394 245L391 248L402 248L399 245L399 244L410 244L388 243M433 243L433 258L447 258C447.569 250.536 452.75 251.001 459 251L459 243L433 243z"/>
<path style="fill:#efeff1; stroke:none;" d="M388 244L389 248L391 248L394 245L388 244M399 244L399 245L410 248L410 244L399 244z"/>
<path style="fill:#a9a6a1; stroke:none;" d="M410.333 245.667L410.667 246.333L410.333 245.667M388 247L388 258L410 258L410 248L403 248C400.313 261.272 392.768 252.707 388 247z"/>
<path style="fill:#3f3d44; stroke:none;" d="M390 248C391.111 257.941 401.889 257.941 403 248L398 248L399 251C396.122 251.072 395.55 250.834 395 248L390 248z"/>
<path style="fill:#ce4a18; stroke:none;" d="M394 249L394 251L399 251L399 249L394 249z"/>
<path style="fill:#a9a6a1; stroke:none;" d="M481 251L482 252L481 251z"/>
<path style="fill:#efeff1; stroke:none;" d="M339 255L339 267L348 267L348 261L352 261L352 280L353 280L353 261L357 261L357 267L366 267L366 255L353 255L339 255M451 255L451 267L460 267L460 261L464 261L464 280L465 280L465 261L469 261L469 267L478 267L478 255L465 255L451 255z"/>
<path style="fill:#ecb307; stroke:none;" d="M370 262L370 287L361 287L361 293L358 293L358 311L459 311L456 287L447 287L447 262L370 262z"/>
<path style="fill:#efeff1; stroke:none;" d="M378 269C396.85 269 421.955 273.334 440 268L440 266C426.132 261.901 407.465 265 393 265C387.878 265 379.944 263.144 378 269M339 271L339 280L348 280L348 271L339 271z"/>
<path style="fill:#a9a6a1; stroke:none;" d="M348 271L348 275L352 275L352 271L348 271M353 271L353 275L357 275L357 271L353 271z"/>
<path style="fill:#efeff1; stroke:none;" d="M357 271L357 280L366 280L366 271L357 271M451 271L451 280L460 280L460 271L451 271z"/>
<path style="fill:#a9a6a1; stroke:none;" d="M460 271L460 275L464 275L464 271L460 271M465 271L465 275L469 275L469 271L465 271z"/>
<path style="fill:#efeff1; stroke:none;" d="M469 271L469 280L478 280L478 271L469 271z"/>
<path style="fill:#a9a6a1; stroke:none;" d="M339 280L339 283L348 283L348 280L339 280M352 280L352 283L353 283L352 280M357 280L357 283L366 283L366 280L357 280M451 280L451 283L460 283L460 280L451 280M464 280L464 283L465 283L464 280M469 280L469 283L478 283L478 280L469 280M335 286L336 287L335 286z"/>
<path style="fill:#ce4a18; stroke:none;" d="M447 286L448 287L447 286z"/>
<path style="fill:#efeff1; stroke:none;" d="M348 287L348 289L357 289L357 287L348 287M460 287L460 289L469 289L469 287L460 287z"/>
<path style="fill:#ce4a18; stroke:none;" d="M360 292L361 293L360 292z"/>
<path style="fill:#a9a6a1; stroke:none;" d="M472 292L473 293L472 292z"/>
<path style="fill:#ce4a18; stroke:none;" d="M445.148 296.029C438.69 299.802 443.961 310.631 450.852 306.806C457.492 303.119 452.502 291.732 445.148 296.029M417.667 297.333L418.333 297.667L417.667 297.333M428.667 297.333L429.333 297.667L428.667 297.333z"/>
<path style="fill:#3f3d44; stroke:none;" d="M389 298L389 304L401 304L401 298L399 298L399 303L396 303L396 298L394 298L394 303L392 303L392 298L389 298z"/>
<path style="fill:#ce4a18; stroke:none;" d="M398 298L398 303L399 303L398 298z"/>
<path style="fill:#3f3d44; stroke:none;" d="M404 298L404 304L413 304L413 298L404 298M416 298L416 304L425 304L425 303L419 303L419 298L416 298M427 298L427 304L436 304L436 303L430 303L430 298L427 298z"/>
<path style="fill:#ecb307; stroke:none;" d="M452 304L452 303L446 303L446 302L452 302L452 300L446 300L446 299L452 299C443.629 295.496 440.928 303.961 452 304M406 299L406 301L411 301L411 299L406 299z"/>
<path style="fill:#ce4a18; stroke:none;" d="M437 300L438 301L437 300z"/>
<path style="fill:#3f3d44; stroke:none;" d="M438 300L438 302L440 302L440 300L438 300z"/>
<path style="fill:#ce4a18; stroke:none;" d="M389 304L389 305L400 305L389 304M404.667 304.333L405.333 304.667L404.667 304.333M411.667 304.333L412.333 304.667L411.667 304.333z"/>
<path style="fill:#a9a6a1; stroke:none;" d="M358 315L358 319C366.978 318.71 375.516 315.996 385 316C389.27 316.002 393.713 315.231 395 320L401 319L401 315L358 315z"/>
<path style="fill:#efeff1; stroke:none;" d="M405 315L404 334L413 334L412 315L405 315z"/>
<path style="fill:#a9a6a1; stroke:none;" d="M416 315L416 319C424.978 318.71 433.516 315.996 443 316C447.27 316.002 451.713 315.231 453 320L459 319L459 315L416 315z"/>
<path style="fill:#efeff1; stroke:none;" d="M364 320L396 319L396 317C389.651 315.123 366.388 312.805 364 320M422 320L454 319L454 317C447.651 315.123 424.388 312.805 422 320z"/>
<path style="fill:#a9a6a1; stroke:none;" d="M358 327L358 328L365 330L364 327L395 327C384.797 322.719 368.822 326.535 358 327M416 327L416 328L423 330L422 327L453 327C442.797 322.719 426.822 326.535 416 327z"/>
<path style="fill:#efeff1; stroke:none;" d="M364 327C367.442 332.309 392.558 332.309 396 327L364 327z"/>
<path style="fill:#a9a6a1; stroke:none;" d="M395 330L401 327L395 330z"/>
<path style="fill:#efeff1; stroke:none;" d="M422 327C425.442 332.309 450.558 332.309 454 327L422 327z"/>
<path style="fill:#a9a6a1; stroke:none;" d="M453 330L459 327L453 330M354 331L355 332L354 331M412 331L413 332L412 331M305 334L304 336L305 334z"/>
<path style="fill:#3f3d44; stroke:none;" d="M304 337L314 337C310.656 333.589 307.344 333.589 304 337z"/>
<path style="fill:#a9a6a1; stroke:none;" d="M312 334L313 335L312 334M497 334L498 335L497 334z"/>
<path style="fill:#3f3d44; stroke:none;" d="M504 338L513 338C511.34 333 505.66 333 504 338z"/>
<path style="fill:#a9a6a1; stroke:none;" d="M313 335L314 336L313 335M498 335L499 336L498 335M420 363L420 391L424 391C424 387.067 422.118 375.896 427.13 374.346C434.177 372.166 433 387.55 433 391L436 391C436 382.721 437.255 365.964 424 373L424 363L420 363M257 364L263 391C270.093 389.769 271.495 376.185 272 370L273 370C274.843 376.544 275.104 389.694 283 391L289 364C282.575 366.112 281.498 379.906 281 386L280 386C279.704 382.374 277.702 364.636 273 364.636C268.298 364.636 266.296 382.374 266 386C263.384 379.841 264.001 366.301 257 364M529 365L525 372L528 373C528 380.389 525.249 390.68 535 391L535 389L531 389L531 373L536 373L536 371L531 371L531 365L529 365M296.044 371.743C286.026 375.769 291.351 394.921 302.956 390.257C312.974 386.231 307.649 367.079 296.044 371.743M311 371C312.632 378.908 317.861 400.873 322.845 382.005C323.373 380.006 323.724 378.044 324 376L325 376C325.356 378.641 327.209 393.385 332.291 389.914C336.201 387.242 337.086 375.43 338 371C332.473 372.937 332.066 381.838 331 387L330 387L326 371L323 371L319 387C316.471 381.834 317.095 373.003 311 371M360 386L359 389C371.96 395.237 379.151 381.098 363 379C364.034 372.536 367.924 374.659 373 374C369.336 370.567 357.349 369.796 359.851 377.895C361.136 382.054 365.89 381.027 368.338 383.723C373.18 389.055 361.748 386.696 360 386M379 371C379 377.131 378.275 397.835 390 389L395 391L395 371L391 371C391 374.933 392.882 386.104 387.87 387.654C380.823 389.834 382 374.45 382 371L379 371M416 387C413.204 386.803 409.735 388.748 407.109 387.748C402.158 385.863 401.977 377.52 406.228 374.85C409.032 373.09 412.923 375.223 416 375C400.509 357.446 392.565 397.564 411.941 390.282C413.829 389.572 414.718 388.453 416 387M466 386C459.772 387.606 455.678 389.687 453 382L467 382C466.751 371.711 452.839 365.685 450.279 378.004C448.15 388.246 460.409 396.654 466 386M472 371L472 391L475 391C475 387.21 473.148 373.255 479.935 374.037C485.879 374.722 484 387.019 484 391L487 391C487 387.21 485.148 373.255 491.935 374.037C497.879 374.722 496 387.019 496 391L499 391C499 384.568 498.574 362.183 487 374L486 374C482.919 370.857 479.674 370.494 476 373L472 371M505 371L505 399L508 399L508 389C528.059 398.64 523.751 362.936 509 373L505 371M538 371L544 397L540 397L540 399C549.569 398.261 553.767 379.229 555 371C549.331 372.973 547.8 382.585 547 388L546 388L541 371L538 371z"/>
<path style="fill:#efeff1; stroke:none;" d="M298.105 373.851C291.476 375.9 293.261 390.509 300.895 388.149C307.524 386.1 305.739 371.491 298.105 373.851M453 380L464 380C461.89 372.112 455.11 372.112 453 380M511.147 374.072C505.091 377.233 508.244 392.119 515.721 387.802C521.505 384.462 518.56 370.202 511.147 374.072z"/>
<path style="fill:#a9a6a1; stroke:none;" d="M341 386L340 396C344.459 393.751 344.944 390.751 345 386L341 386z"/>
</svg>
