<?xml version="1.0" encoding="utf-8"?>
<!-- Generator: Adobe Illustrator 27.3.1, SVG Export Plug-In . SVG Version: 6.00 Build 0)  -->
<svg version="1.1" xmlns="http://www.w3.org/2000/svg" xmlns:xlink="http://www.w3.org/1999/xlink" x="0px" y="0px"
	 viewBox="0 0 602.65 483.33" style="enable-background:new 0 0 602.65 483.33;" xml:space="preserve">
<style type="text/css">
	.st0{display:none;}
	.st1{display:inline;fill:#211E1F;}
	.st2{fill:#C2CACB;}
	.st3{fill:#FFFFFF;}
</style>
<g id="Layer_1">
</g>
<g id="Layer_3" class="st0">
	<path class="st1" d="M603.09,482.96H74.18c-40.12,0-72.65-32.53-72.65-72.65V0h528.9c40.12,0,72.65,32.53,72.65,72.65V482.96z"/>
</g>
<g id="Layer_2">
	<circle class="st2" cx="188.42" cy="129.52" r="70.8"/>
	<polygon class="st3" points="213.48,483.11 117.61,483.11 117.61,305.83 211.23,284.66 	"/>
	<polygon class="st2" points="300.87,483.08 211.72,483.08 211.23,284.69 300.38,304.77 	"/>
	<polygon class="st3" points="431.88,483.11 300.38,483.11 300.38,152.38 431.88,118.2 	"/>
	<path class="st2" d="M578.74,483.2l-146.86,0.12V118.2l71.57,18.1c43.8,10.18,74.79,49.22,74.79,94.18L578.74,483.2z"/>
</g>
</svg>
