<?xml version="1.0" standalone="no"?>
<!DOCTYPE svg PUBLIC "-//W3C//DTD SVG 20010904//EN"
 "http://www.w3.org/TR/2001/REC-SVG-20010904/DTD/svg10.dtd">
<svg version="1.0" xmlns="http://www.w3.org/2000/svg"
 width="783.000000pt" height="650.000000pt" viewBox="0 0 783.000000 650.000000"
 preserveAspectRatio="xMidYMid meet">

<g transform="translate(0.000000,650.000000) scale(0.100000,-0.100000)"
fill="#000000" stroke="none">
<path d="M3778 4700 c-150 -56 -168 -66 -199 -117 -53 -85 -18 -207 71 -253
59 -30 112 -25 230 21 155 60 140 60 140 -5 0 -53 -1 -56 -25 -56 -24 0 -25
-3 -25 -55 l0 -55 -212 -2 -213 -3 -3 -92 -3 -92 -92 -3 -92 -3 0 -175 0 -175
42 -3 c37 -3 42 -6 45 -30 3 -25 7 -27 51 -30 l47 -3 0 -182 c0 -100 3 -192 6
-204 l6 -23 -178 -2 c-161 -3 -179 -5 -182 -21 -3 -16 43 -17 895 -15 790 3
898 5 898 18 0 13 -28 15 -180 18 l-180 2 3 205 3 204 47 3 c43 3 47 5 50 31
3 25 7 27 48 27 l44 0 -2 178 -3 177 -92 3 -93 3 0 94 0 95 -209 0 -210 0 -3
53 c-3 45 -6 52 -25 55 -21 3 -23 9 -23 58 0 53 12 68 36 45 19 -19 207 -81
246 -81 162 0 240 201 122 312 -34 31 -289 128 -338 128 -35 0 -59 -20 -70
-57 -7 -21 -14 -23 -67 -23 -58 0 -60 1 -71 30 -22 64 -69 64 -240 0z m219
-60 c32 -87 28 -150 -14 -191 -35 -35 -198 -99 -253 -99 -79 0 -148 82 -135
159 12 69 46 97 190 151 72 26 143 48 159 47 25 -2 31 -9 53 -67z m380 24
c155 -56 192 -86 201 -159 6 -58 -16 -106 -63 -135 -46 -28 -90 -25 -204 16
-111 40 -145 68 -157 129 -11 58 42 195 75 195 11 0 77 -21 148 -46z m-278
-206 c12 -16 11 -18 -7 -18 -15 0 -19 5 -15 20 3 12 6 19 7 18 1 -2 8 -11 15
-20z m21 -113 c0 -54 0 -55 -30 -55 -30 0 -30 1 -30 55 0 54 0 55 30 55 30 0
30 -1 30 -55z m50 -130 l0 -35 -80 0 -80 0 0 35 0 35 80 0 80 0 0 -35z m398
-71 c12 -4 22 -13 22 -20 0 -12 -82 -14 -505 -14 -431 0 -505 2 -505 14 0 8 8
17 18 19 26 7 944 8 970 1z m-728 -149 l0 -75 -69 0 -70 0 -3 33 c-3 32 -4 32
-60 35 l-58 3 0 39 0 40 130 0 130 0 0 -75z m262 63 c2 -7 2 -41 0 -75 l-4
-63 -109 0 -109 0 0 75 0 75 109 0 c78 0 110 -4 113 -12z m488 -28 l0 -39 -57
-3 c-57 -3 -58 -3 -61 -35 l-3 -33 -70 0 -69 0 0 75 0 75 130 0 130 0 0 -40z
m-1110 -90 c0 -15 40 -12 41 3 0 10 2 10 6 0 6 -15 43 -17 43 -3 0 6 20 10 45
10 l45 0 0 -60 0 -60 -45 0 c-43 0 -45 1 -45 30 0 23 -4 30 -20 30 -17 0 -20
-7 -20 -50 l0 -50 65 0 65 0 0 -60 0 -60 -45 0 -45 0 0 40 c0 33 -3 40 -20 40
-17 0 -20 -7 -22 -42 l-1 -43 -4 43 c-3 34 -8 42 -24 42 -16 0 -19 -7 -19 -40
l0 -40 -45 0 -45 0 0 60 0 60 65 0 65 0 0 50 c0 43 -3 50 -20 50 -16 0 -20 -7
-20 -30 0 -29 -2 -30 -45 -30 l-45 0 0 60 0 60 45 0 c25 0 45 -4 45 -10z
m1120 0 c0 -15 40 -12 41 3 0 10 2 10 6 0 6 -15 43 -17 43 -3 0 6 20 10 45 10
l45 0 0 -60 0 -60 -45 0 c-43 0 -45 1 -45 30 0 23 -4 30 -20 30 -17 0 -20 -7
-20 -50 l0 -50 65 0 65 0 0 -60 0 -60 -45 0 -45 0 0 40 c0 33 -3 40 -20 40
-17 0 -20 -7 -22 -42 l-1 -43 -4 43 c-3 34 -8 42 -24 42 -16 0 -19 -7 -19 -40
l0 -40 -45 0 -45 0 0 60 0 60 65 0 65 0 0 50 c0 43 -3 50 -20 50 -16 0 -20 -7
-20 -30 0 -29 -2 -30 -45 -30 l-45 0 0 60 0 60 45 0 c25 0 45 -4 45 -10z
m-130 -185 l0 -125 45 0 c41 0 45 -2 45 -25 0 -14 7 -28 15 -31 12 -5 15 -25
15 -95 l0 -89 -505 0 -505 0 0 90 c0 73 3 90 15 90 10 0 15 10 15 30 0 29 2
30 45 30 l45 0 0 125 0 125 385 0 385 0 0 -125z m-900 -135 c0 -5 -20 -10 -45
-10 -25 0 -45 5 -45 10 0 6 20 10 45 10 25 0 45 -4 45 -10z m1120 0 c0 -5 -20
-10 -45 -10 -25 0 -45 5 -45 10 0 6 20 10 45 10 25 0 45 -4 45 -10z m-680
-289 c0 -25 -40 -31 -206 -31 -174 0 -224 7 -224 31 0 18 12 19 215 19 203 0
215 -1 215 -19z m110 -53 c0 -40 3 -83 6 -95 6 -21 3 -23 -37 -23 l-44 0 3 95
3 95 35 0 34 0 0 -72z m470 53 c0 -25 -40 -31 -206 -31 -174 0 -224 7 -224 31
0 18 12 19 215 19 203 0 215 -1 215 -19z m-615 -100 c38 -6 39 -8 18 -19 -30
-17 -366 -17 -396 0 -21 12 -21 13 13 19 49 9 317 9 365 0z m580 0 c38 -6 39
-8 18 -19 -30 -17 -366 -17 -396 0 -21 12 -21 13 13 19 49 9 317 9 365 0z"/>
<path d="M3914 4679 c-3 -6 0 -18 9 -26 18 -18 37 -9 37 18 0 21 -34 27 -46 8z"/>
<path d="M3794 4630 c-26 -10 -62 -55 -70 -86 -17 -65 45 -134 120 -134 53 0
106 52 106 104 0 89 -79 147 -156 116z m76 -65 c0 -18 -56 -49 -76 -41 -22 8
-17 24 14 40 35 20 62 20 62 1z"/>
<path d="M3624 4549 c-3 -6 0 -18 9 -26 18 -18 37 -9 37 18 0 21 -34 27 -46 8z"/>
<path d="M3690 4391 c0 -27 19 -36 37 -18 18 18 9 37 -18 37 -12 0 -19 -7 -19
-19z"/>
<path d="M4214 4679 c-3 -6 0 -18 9 -26 18 -18 37 -9 37 18 0 21 -34 27 -46 8z"/>
<path d="M4282 4620 c-104 -63 -61 -210 62 -210 53 0 106 52 106 104 0 49 -23
92 -60 111 -39 20 -69 19 -108 -5z m78 -55 c32 -16 41 -45 15 -45 -21 0 -75
28 -75 39 0 24 21 26 60 6z"/>
<path d="M4504 4549 c-3 -6 0 -18 9 -26 18 -18 37 -9 37 18 0 21 -34 27 -46 8z"/>
<path d="M4440 4391 c0 -27 19 -36 37 -18 18 18 9 37 -18 37 -12 0 -19 -7 -19
-19z"/>
<path d="M3900 4002 c0 -10 7 -28 16 -40 32 -46 114 -17 114 40 0 15 -9 18
-65 18 -56 0 -65 -3 -65 -18z"/>
<path d="M4436 3531 c-26 -29 -18 -82 17 -101 24 -13 30 -13 55 0 34 20 44 86
16 107 -26 19 -68 16 -88 -6z m67 -12 c14 -1 9 -4 -13 -9 l-35 -7 31 -2 c23
-1 33 -7 37 -22 5 -18 2 -20 -41 -17 -41 3 -47 6 -50 27 -4 26 15 44 36 36 8
-3 23 -6 35 -6z"/>
<path d="M4167 3523 c-4 -3 -7 -19 -7 -35 0 -27 2 -28 48 -26 36 1 39 2 15 5
-29 4 -33 8 -33 34 0 28 -9 37 -23 22z"/>
<path d="M4277 3523 c-4 -3 -7 -19 -7 -35 0 -27 2 -28 48 -26 36 1 39 2 15 5
-29 4 -33 8 -33 34 0 28 -9 37 -23 22z"/>
<path d="M3890 3485 l0 -36 58 3 c56 3 57 3 60 36 4 35 -15 45 -20 10 -5 -32
-28 -35 -28 -4 0 14 -4 26 -10 26 -5 0 -10 -11 -10 -25 0 -14 -4 -25 -10 -25
-5 0 -10 11 -10 25 0 16 -6 25 -15 25 -11 0 -15 -11 -15 -35z"/>
<path d="M4040 3485 c0 -19 5 -35 10 -35 6 0 10 7 10 15 0 9 9 15 25 15 16 0
25 -6 25 -15 0 -8 5 -15 10 -15 6 0 10 16 10 35 0 35 0 35 -45 35 -45 0 -45 0
-45 -35z m70 15 c0 -5 -11 -10 -25 -10 -14 0 -25 5 -25 10 0 6 11 10 25 10 14
0 25 -4 25 -10z"/>
<path d="M4375 3490 c3 -5 10 -10 16 -10 5 0 9 5 9 10 0 6 -7 10 -16 10 -8 0
-12 -4 -9 -10z"/>
<path d="M3045 3150 c-12 -19 10 -32 51 -28 27 2 39 8 39 18 0 19 -79 27 -90
10z"/>
<path d="M5047 3154 c-20 -21 -5 -34 39 -34 38 0 45 3 42 18 -2 11 -14 18 -38
20 -20 2 -39 0 -43 -4z"/>
<path d="M4210 2730 c0 -151 16 -195 22 -57 4 112 -1 197 -12 197 -6 0 -10
-58 -10 -140z"/>
<path d="M2605 2728 c40 -172 50 -173 91 -13 16 65 33 115 36 110 3 -6 18 -61
33 -122 29 -121 47 -142 64 -75 49 186 58 232 47 232 -8 0 -22 -40 -36 -102
-12 -57 -26 -110 -30 -118 -9 -15 -11 -8 -48 140 -26 107 -40 100 -76 -38 -16
-62 -32 -109 -36 -105 -4 4 -17 56 -30 116 -14 63 -28 107 -35 107 -8 0 -2
-41 20 -132z"/>
<path d="M5290 2815 c0 -18 -5 -25 -20 -25 -11 0 -20 -4 -20 -10 0 -5 9 -10
20 -10 18 0 20 -7 20 -84 0 -67 3 -85 16 -90 24 -9 44 -7 44 4 0 6 -9 10 -20
10 -18 0 -20 7 -20 80 0 73 2 80 20 80 11 0 20 5 20 10 0 6 -9 10 -20 10 -15
0 -20 7 -20 25 0 14 -4 25 -10 25 -5 0 -10 -11 -10 -25z"/>
<path d="M2974 2782 c-38 -6 -59 -39 -59 -93 0 -58 25 -90 73 -91 64 -2 102
52 87 121 -9 43 -54 71 -101 63z m67 -28 c7 -9 13 -37 13 -64 0 -59 -16 -80
-59 -80 -43 0 -59 21 -59 80 0 59 16 80 59 80 18 0 38 -7 46 -16z"/>
<path d="M3120 2778 c1 -7 11 -51 24 -98 30 -111 47 -116 70 -23 25 99 31 105
49 42 9 -30 19 -67 23 -82 12 -52 36 -28 60 63 26 95 28 110 15 110 -5 0 -17
-38 -26 -85 -10 -47 -21 -88 -25 -90 -3 -2 -17 36 -30 86 -13 49 -29 88 -35
86 -5 -2 -21 -43 -34 -91 -14 -50 -28 -81 -32 -74 -3 7 -15 48 -25 91 -10 42
-21 77 -26 77 -4 0 -8 -6 -8 -12z"/>
<path d="M3645 2782 c-30 -6 -45 -22 -45 -48 0 -27 11 -35 65 -49 35 -10 40
-14 40 -40 0 -27 -4 -30 -33 -33 -18 -2 -40 2 -48 9 -8 6 -18 9 -21 5 -9 -9
16 -25 42 -27 58 -4 85 11 85 46 0 28 -15 41 -59 52 -39 10 -57 32 -47 58 5
14 15 17 51 13 25 -3 43 -2 40 2 -6 10 -45 17 -70 12z"/>
<path d="M3800 2712 c0 -47 5 -84 13 -94 16 -21 48 -30 67 -18 12 8 10 10 -10
10 -42 0 -50 17 -50 102 0 45 -4 78 -10 78 -6 0 -10 -33 -10 -78z"/>
<path d="M3918 2706 c-3 -93 -1 -116 13 -116 5 0 9 45 9 100 0 55 -4 100 -9
100 -5 0 -11 -38 -13 -84z"/>
<path d="M4064 2782 c-38 -6 -59 -39 -59 -93 0 -36 5 -54 21 -70 26 -26 89
-29 112 -5 10 10 12 16 5 16 -7 0 -15 -4 -18 -10 -9 -14 -68 -13 -83 2 -16 16
-16 120 0 136 15 15 74 16 83 2 3 -5 11 -10 17 -10 7 0 7 5 -1 14 -13 15 -45
23 -77 18z"/>
<path d="M4275 2779 c-18 -7 -17 -8 6 -8 41 -1 49 -19 49 -103 0 -45 4 -78 10
-78 15 0 13 153 -2 172 -17 21 -39 27 -63 17z"/>
<path d="M4552 2774 c-66 -27 -64 -142 3 -170 39 -16 95 -2 95 23 0 12 -2 12
-16 -1 -18 -19 -75 -21 -92 -4 -7 7 -12 22 -12 35 0 22 4 23 71 23 l71 0 -7
28 c-16 66 -57 90 -113 66z m78 -23 c22 -42 14 -51 -45 -51 -43 0 -55 3 -55
16 0 34 20 54 55 54 24 0 38 -6 45 -19z"/>
<path d="M4730 2690 c0 -60 4 -100 10 -100 6 0 10 40 10 100 0 60 -4 100 -10
100 -6 0 -10 -40 -10 -100z"/>
<path d="M4785 2780 c-16 -6 -14 -8 15 -11 40 -5 47 -21 49 -116 1 -35 6 -63
11 -63 6 0 10 33 10 78 0 63 -4 82 -17 94 -25 21 -45 26 -68 18z"/>
<path d="M4905 2780 c-16 -6 -13 -8 15 -11 l35 -4 3 -87 c2 -69 6 -88 17 -88
19 0 21 123 2 159 -14 28 -44 41 -72 31z"/>
<path d="M5060 2650 c0 -87 4 -140 10 -140 6 0 10 25 10 56 0 48 2 55 14 45
17 -14 67 -18 86 -6 39 24 47 119 12 158 -18 20 -82 23 -100 5 -9 -9 -12 -8
-12 5 0 9 -4 17 -10 17 -6 0 -10 -53 -10 -140z m120 101 c14 -27 13 -114 -2
-129 -7 -7 -26 -12 -43 -12 -17 0 -36 5 -43 12 -16 16 -16 120 0 136 20 20 76
15 88 -7z"/>
<path d="M5415 2689 c41 -120 43 -149 15 -156 -11 -3 -20 -9 -20 -14 0 -13 13
-11 33 4 19 14 111 270 95 265 -7 -3 -25 -44 -41 -92 -16 -48 -31 -85 -33 -83
-3 2 -17 42 -32 87 -16 46 -34 86 -40 88 -6 2 4 -43 23 -99z"/>
<path d="M3410 2616 c0 -8 5 -18 11 -21 7 -5 5 -15 -6 -31 -8 -13 -11 -24 -5
-24 11 0 40 53 40 75 0 8 -9 15 -20 15 -11 0 -20 -6 -20 -14z"/>
</g>
</svg>
